<svg id="visual" viewBox="0 0 320 210" width="320" height="210" xmlns="http://www.w3.org/2000/svg" xmlns:xlink="http://www.w3.org/1999/xlink" version="1.1"><g stroke-width="1" stroke-linejoin="bevel"><path d="M137.1 84L137.1 42L91.4 42Z" fill="#4f3600" stroke="#4f3600"></path><path d="M91.4 42L91.4 84L137.1 84Z" fill="#4f3600" stroke="#4f3600"></path><path d="M137.1 42L91.4 0L91.4 42Z" fill="#512400" stroke="#512400"></path><path d="M91.4 84L91.4 126L137.1 84Z" fill="#500b00" stroke="#500b00"></path><path d="M137.1 42L137.1 0L91.4 0Z" fill="#4d3d00" stroke="#4d3d00"></path><path d="M91.4 126L137.1 126L137.1 84Z" fill="#512a00" stroke="#512a00"></path><path d="M91.4 42L45.7 84L91.4 84Z" fill="#500b00" stroke="#500b00"></path><path d="M91.4 84L45.7 84L91.4 126Z" fill="#512a00" stroke="#512a00"></path><path d="M45.7 42L45.7 84L91.4 42Z" fill="#511500" stroke="#511500"></path><path d="M91.4 0L45.7 42L91.4 42Z" fill="#512a00" stroke="#512a00"></path><path d="M182.9 84L182.9 42L137.1 84Z" fill="#4f3600" stroke="#4f3600"></path><path d="M137.1 84L182.9 42L137.1 42Z" fill="#511c00" stroke="#511c00"></path><path d="M137.1 42L182.9 42L137.1 0Z" fill="#4f0001" stroke="#4f0001"></path><path d="M137.1 126L182.9 84L137.1 84Z" fill="#454900" stroke="#454900"></path><path d="M45.7 84L45.7 126L91.4 126Z" fill="#512400" stroke="#512400"></path><path d="M91.4 0L45.7 0L45.7 42Z" fill="#511c00" stroke="#511c00"></path><path d="M137.1 126L182.9 126L182.9 84Z" fill="#512a00" stroke="#512a00"></path><path d="M182.9 42L182.9 0L137.1 0Z" fill="#503000" stroke="#503000"></path><path d="M45.7 126L91.4 168L91.4 126Z" fill="#511c00" stroke="#511c00"></path><path d="M91.4 126L91.4 168L137.1 126Z" fill="#511500" stroke="#511500"></path><path d="M137.1 126L137.1 168L182.9 126Z" fill="#511c00" stroke="#511c00"></path><path d="M91.4 168L137.1 168L137.1 126Z" fill="#500b00" stroke="#500b00"></path><path d="M45.7 84L0 84L45.7 126Z" fill="#4d3d00" stroke="#4d3d00"></path><path d="M45.7 42L0 84L45.7 84Z" fill="#4f0001" stroke="#4f0001"></path><path d="M0 42L0 84L45.7 42Z" fill="#512a00" stroke="#512a00"></path><path d="M45.7 0L0 42L45.7 42Z" fill="#512400" stroke="#512400"></path><path d="M182.9 84L228.6 42L182.9 42Z" fill="#500b00" stroke="#500b00"></path><path d="M182.9 42L228.6 42L182.9 0Z" fill="#494300" stroke="#494300"></path><path d="M228.6 84L228.6 42L182.9 84Z" fill="#503000" stroke="#503000"></path><path d="M182.9 126L228.6 84L182.9 84Z" fill="#4d3d00" stroke="#4d3d00"></path><path d="M45.7 126L45.7 168L91.4 168Z" fill="#512400" stroke="#512400"></path><path d="M0 126L45.7 168L45.7 126Z" fill="#511500" stroke="#511500"></path><path d="M137.1 168L182.9 168L182.9 126Z" fill="#503000" stroke="#503000"></path><path d="M182.9 126L228.6 126L228.6 84Z" fill="#500b00" stroke="#500b00"></path><path d="M45.7 0L0 0L0 42Z" fill="#503000" stroke="#503000"></path><path d="M0 84L0 126L45.7 126Z" fill="#503000" stroke="#503000"></path><path d="M182.9 168L228.6 126L182.9 126Z" fill="#4d3d00" stroke="#4d3d00"></path><path d="M228.6 42L228.6 0L182.9 0Z" fill="#454900" stroke="#454900"></path><path d="M91.4 210L137.1 210L91.4 168Z" fill="#4f0001" stroke="#4f0001"></path><path d="M91.4 168L137.1 210L137.1 168Z" fill="#4f0001" stroke="#4f0001"></path><path d="M137.1 168L137.1 210L182.9 168Z" fill="#4f0001" stroke="#4f0001"></path><path d="M45.7 168L91.4 210L91.4 168Z" fill="#500b00" stroke="#500b00"></path><path d="M0 126L0 168L45.7 168Z" fill="#4f3600" stroke="#4f3600"></path><path d="M45.7 168L45.7 210L91.4 210Z" fill="#511c00" stroke="#511c00"></path><path d="M182.9 210L228.6 168L182.9 168Z" fill="#4f3600" stroke="#4f3600"></path><path d="M182.9 168L228.6 168L228.6 126Z" fill="#503000" stroke="#503000"></path><path d="M228.6 84L274.3 84L228.6 42Z" fill="#4f0001" stroke="#4f0001"></path><path d="M228.6 42L274.3 42L228.6 0Z" fill="#512a00" stroke="#512a00"></path><path d="M228.6 126L274.3 84L228.6 84Z" fill="#4f0001" stroke="#4f0001"></path><path d="M274.3 126L274.3 84L228.6 126Z" fill="#511c00" stroke="#511c00"></path><path d="M274.3 84L274.3 42L228.6 42Z" fill="#4f3600" stroke="#4f3600"></path><path d="M0 168L45.7 210L45.7 168Z" fill="#512400" stroke="#512400"></path><path d="M137.1 210L182.9 210L182.9 168Z" fill="#512400" stroke="#512400"></path><path d="M228.6 168L274.3 126L228.6 126Z" fill="#454900" stroke="#454900"></path><path d="M274.3 42L274.3 0L228.6 0Z" fill="#511c00" stroke="#511c00"></path><path d="M0 168L0 210L45.7 210Z" fill="#511c00" stroke="#511c00"></path><path d="M182.9 210L228.6 210L228.6 168Z" fill="#494300" stroke="#494300"></path><path d="M228.6 168L274.3 168L274.3 126Z" fill="#500b00" stroke="#500b00"></path><path d="M228.6 210L274.3 168L228.6 168Z" fill="#454900" stroke="#454900"></path><path d="M274.3 84L320 84L274.3 42Z" fill="#503000" stroke="#503000"></path><path d="M274.3 42L320 42L274.3 0Z" fill="#503000" stroke="#503000"></path><path d="M274.3 126L320 84L274.3 84Z" fill="#512a00" stroke="#512a00"></path><path d="M320 126L320 84L274.3 126Z" fill="#511500" stroke="#511500"></path><path d="M320 84L320 42L274.3 42Z" fill="#4d3d00" stroke="#4d3d00"></path><path d="M274.3 168L320 126L274.3 126Z" fill="#4f3600" stroke="#4f3600"></path><path d="M320 168L320 126L274.3 168Z" fill="#511c00" stroke="#511c00"></path><path d="M320 42L320 0L274.3 0Z" fill="#512400" stroke="#512400"></path><path d="M228.6 210L274.3 210L274.3 168Z" fill="#503000" stroke="#503000"></path><path d="M274.3 210L320 168L274.3 168Z" fill="#4f0001" stroke="#4f0001"></path><path d="M274.3 210L320 210L320 168Z" fill="#4d3d00" stroke="#4d3d00"></path></g></svg>